<svg xmlns="http://www.w3.org/2000/svg" viewBox="0 0 105 113" width="105" height="113">
<defs><linearGradient id="cmz-g4a4f5a" x1="0" y1="0" x2="1" y2="0"><stop offset="0" stop-color="#2b2e34"/><stop offset="0.17" stop-color="#676b74"/><stop offset="0.33" stop-color="#a8abb0"/><stop offset="0.62" stop-color="#4a4f5a"/><stop offset="1" stop-color="#212428"/></linearGradient><linearGradient id="cmz-geef1f6" x1="0" y1="0" x2="1" y2="0"><stop offset="0" stop-color="#8a8c8f"/><stop offset="0.17" stop-color="#f1f3f7"/><stop offset="0.33" stop-color="#f7f8fb"/><stop offset="0.62" stop-color="#eef1f6"/><stop offset="1" stop-color="#6b6c6f"/></linearGradient><linearGradient id="cmz-g9aa2af" x1="0" y1="0" x2="1" y2="0"><stop offset="0" stop-color="#595e66"/><stop offset="0.17" stop-color="#aab1bc"/><stop offset="0.33" stop-color="#cfd2d9"/><stop offset="0.62" stop-color="#9aa2af"/><stop offset="1" stop-color="#45494f"/></linearGradient><linearGradient id="cmz-g646d7c" x1="0" y1="0" x2="1" y2="0"><stop offset="0" stop-color="#3a3f48"/><stop offset="0.17" stop-color="#7d8491"/><stop offset="0.33" stop-color="#b5b9c0"/><stop offset="0.62" stop-color="#646d7c"/><stop offset="1" stop-color="#2d3138"/></linearGradient></defs>
  <path d="M48.6 77.5 L56.4 77.5 Q56.4 83.8 60.2 91.5 L44.8 91.5 Q48.6 83.8 48.6 77.5 Z" fill="url(#cmz-g4a4f5a)"/>
  <ellipse cx="52.5" cy="91.5" rx="7.7" ry="1.5" fill="#14161c"/>
  <g transform="rotate(4 38.5 63.5)"><rect x="9.1" y="58.3" width="29.4" height="10.5" rx="3" fill="#24386b" stroke="#0f1830" stroke-width="1.2"/><line x1="28.7" y1="58.3" x2="28.7" y2="68.8" stroke="#c9a86a" stroke-width="1.2"/><line x1="18.9" y1="58.3" x2="18.9" y2="68.8" stroke="#c9a86a" stroke-width="1.2"/><rect x="9.1" y="58.3" width="29.4" height="3.1" rx="2" fill="#fff" opacity="0.14"/></g>
  <g transform="rotate(-4 66.5 63.5)"><rect x="66.5" y="58.3" width="29.4" height="10.5" rx="3" fill="#24386b" stroke="#0f1830" stroke-width="1.2"/><line x1="76.3" y1="58.3" x2="76.3" y2="68.8" stroke="#c9a86a" stroke-width="1.2"/><line x1="86.1" y1="58.3" x2="86.1" y2="68.8" stroke="#c9a86a" stroke-width="1.2"/><rect x="66.5" y="58.3" width="29.4" height="3.1" rx="2" fill="#fff" opacity="0.14"/></g>
  <rect x="37.1" y="48.1" width="30.8" height="29.4" fill="url(#cmz-geef1f6)"/>
  <rect x="37.1" y="69.8" width="30.8" height="5.6" fill="#2b5ea8" opacity="1"/>
  <rect x="37.1" y="47.3" width="30.8" height="1.6" fill="#000" opacity="0.28"/>
  <rect x="36.8" y="44.3" width="31.5" height="3.5" fill="#454b55" opacity="1"/>
  <path d="M36.4 48.1 Q36.4 30.6 47.3 13.1 L57.8 13.1 Q68.6 30.6 68.6 48.1 Z" fill="url(#cmz-geef1f6)"/>
  <path d="M41.6 34.8 Q52.5 31.6 63.4 34.8" fill="none" stroke="#2b5ea8" stroke-width="2"/>
  <circle cx="47.3" cy="29.2" r="2.7" fill="#0e1726" stroke="#5b6270" stroke-width="1.2"/><circle cx="46.4" cy="28.3" r="0.7" fill="#bfe9f5" opacity="0.9"/>
  <circle cx="57.8" cy="29.2" r="2.7" fill="#0e1726" stroke="#5b6270" stroke-width="1.2"/><circle cx="56.9" cy="28.3" r="0.7" fill="#bfe9f5" opacity="0.9"/>
  <rect x="47.6" y="7.5" width="9.8" height="5.6" fill="url(#cmz-g9aa2af)"/>
  <path d="M49.0 7.5 Q49.0 5.8 51.5 4.0 L53.5 4.0 Q56.0 5.8 56.0 7.5 Z" fill="url(#cmz-g646d7c)"/>
</svg>
