<svg xmlns="http://www.w3.org/2000/svg" viewBox="0 0 300 330" width="300" height="330">
  <defs><radialGradient id="tr-bg" cx="50%" cy="40%" r="80%"><stop offset="0%" stop-color="#3a2a1a"/><stop offset="100%" stop-color="#0c0704"/></radialGradient></defs>
  <rect width="300" height="330" fill="url(#tr-bg)"/><circle cx="176.7" cy="6.1" r="1.8" fill="#eef0ff" opacity="0.27"/><circle cx="226.8" cy="99.5" r="0.9" fill="#eef0ff" opacity="0.47"/><circle cx="283.0" cy="317.9" r="0.9" fill="#eef0ff" opacity="0.46"/><circle cx="75.0" cy="204.9" r="0.9" fill="#eef0ff" opacity="0.69"/><circle cx="254.7" cy="282.0" r="0.9" fill="#eef0ff" opacity="0.58"/><circle cx="162.7" cy="141.8" r="0.9" fill="#eef0ff" opacity="0.60"/><circle cx="295.5" cy="61.4" r="0.9" fill="#eef0ff" opacity="0.54"/><circle cx="171.4" cy="195.5" r="0.9" fill="#eef0ff" opacity="0.38"/><circle cx="298.0" cy="320.2" r="0.9" fill="#eef0ff" opacity="0.53"/><circle cx="138.2" cy="125.7" r="0.9" fill="#eef0ff" opacity="0.58"/><circle cx="177.1" cy="60.2" r="1.8" fill="#eef0ff" opacity="0.61"/><circle cx="288.9" cy="83.0" r="0.9" fill="#eef0ff" opacity="0.53"/><circle cx="103.1" cy="287.7" r="0.9" fill="#eef0ff" opacity="0.65"/><circle cx="171.7" cy="95.9" r="0.9" fill="#eef0ff" opacity="0.67"/>
      
  <path d="M42,330 Q54,371.8 92,331.8 Q150,301.8 208,331.8 Q246,371.8 258,330 Z" fill="#4a3a2c"/>
  <path d="M92,331.8 Q150,301.8 208,331.8" fill="none" stroke="#ff9a3c" stroke-width="4" opacity="0.9"/>
  <rect x="128" y="243.8" width="44" height="52" rx="10" fill="#b98f6c"/>
  <ellipse cx="150" cy="151.8" rx="98" ry="106" fill="#e0c860"/>
  <path d="M52,151.8 a98,106 0 0 1 196,0" fill="rgba(0,0,0,0.12)"/>
  <path d="M78,137.8 Q150,95.80000000000001 222,137.8 Q218,217.8 150,233.8 Q82,217.8 78,137.8 Z" fill="#1c1408"/>
  <path d="M84,135.8 Q150,103.80000000000001 216,135.8 Q190,149.8 150,149.8 Q110,149.8 84,135.8 Z" fill="#ff9a3c" opacity="0.55"/>
  <ellipse cx="168" cy="171.8" rx="26" ry="40" fill="#0b1615" opacity="0.4"/>
  <ellipse cx="150" cy="263.8" rx="58" ry="16" fill="#20242f" stroke="#ff9a3c" stroke-width="3"/>
  
      <path d="M0,300 h300" stroke="#8a7040" stroke-width="8" opacity="0.5"/>
      <path d="M0,314 h300" stroke="#8a7040" stroke-width="8" opacity="0.5"/>
    
</svg>