<svg xmlns="http://www.w3.org/2000/svg" viewBox="0 0 300 330" width="300" height="330">
  <defs><radialGradient id="be2-bg" cx="50%" cy="44%" r="80%">
      <stop offset="0%" stop-color="#655ca8"/>
      <stop offset="100%" stop-color="#652d91"/>
    </radialGradient></defs>
  <rect width="300" height="330" fill="url(#be2-bg)"/><circle cx="168.7" cy="195.3" r="0.9" fill="#eef0ff" opacity="0.40"/><circle cx="55.4" cy="300.6" r="0.9" fill="#eef0ff" opacity="0.44"/><circle cx="244.7" cy="257.8" r="0.9" fill="#eef0ff" opacity="0.66"/><circle cx="88.2" cy="148.5" r="0.9" fill="#eef0ff" opacity="0.35"/><circle cx="26.8" cy="115.3" r="0.9" fill="#eef0ff" opacity="0.26"/><circle cx="156.8" cy="325.2" r="0.9" fill="#eef0ff" opacity="0.50"/><circle cx="196.7" cy="162.9" r="0.9" fill="#eef0ff" opacity="0.43"/><circle cx="253.8" cy="284.5" r="0.9" fill="#eef0ff" opacity="0.33"/><circle cx="291.2" cy="270.3" r="0.9" fill="#eef0ff" opacity="0.52"/><circle cx="94.0" cy="128.4" r="1.8" fill="#eef0ff" opacity="0.50"/>
      <rect x="134" y="61.80000000000001" width="32" height="180" rx="8" fill="#e6d6ff"/>
      <rect x="80" y="111.80000000000001" width="60" height="18" rx="6" fill="#4a3a70" transform="rotate(-20 110 120.80000000000001)"/>
      <rect x="160" y="161.8" width="60" height="18" rx="6" fill="#4a3a70" transform="rotate(20 190 170.8)"/>
      <circle cx="150" cy="51.80000000000001" r="10" fill="#e6d6ff"/>
    
</svg>