<svg xmlns="http://www.w3.org/2000/svg" viewBox="0 0 300 330" width="300" height="330">
  <defs><radialGradient id="vo2-bg" cx="50%" cy="44%" r="80%">
      <stop offset="0%" stop-color="#655ca8"/>
      <stop offset="100%" stop-color="#652d91"/>
    </radialGradient></defs>
  <rect width="300" height="330" fill="url(#vo2-bg)"/><circle cx="104.1" cy="58.3" r="0.9" fill="#eef0ff" opacity="0.52"/><circle cx="184.6" cy="258.7" r="0.9" fill="#eef0ff" opacity="0.61"/><circle cx="238.1" cy="107.3" r="1.8" fill="#eef0ff" opacity="0.45"/><circle cx="194.0" cy="27.9" r="1.8" fill="#eef0ff" opacity="0.32"/><circle cx="4.2" cy="101.9" r="0.9" fill="#eef0ff" opacity="0.41"/><circle cx="109.5" cy="142.0" r="0.9" fill="#eef0ff" opacity="0.58"/><circle cx="6.1" cy="315.2" r="0.9" fill="#eef0ff" opacity="0.46"/><circle cx="12.6" cy="6.3" r="1.8" fill="#eef0ff" opacity="0.34"/><circle cx="236.4" cy="201.2" r="0.9" fill="#eef0ff" opacity="0.49"/><circle cx="40.5" cy="150.3" r="0.9" fill="#eef0ff" opacity="0.33"/><circle cx="110.0" cy="191.8" r="1.8" fill="#eef0ff" opacity="0.26"/><circle cx="219.0" cy="174.9" r="0.9" fill="#eef0ff" opacity="0.48"/><circle cx="197.1" cy="83.2" r="0.9" fill="#eef0ff" opacity="0.69"/><circle cx="196.2" cy="218.4" r="0.9" fill="#eef0ff" opacity="0.46"/>
      
  <path d="M32,330 Q40,197.8 150,147.8 Q260,197.8 268,330 Z" fill="#4a3a70"/>
  <path d="M80,330 Q86,227.8 150,187.8 Q214,227.8 220,330 Z" fill="#6a5aa0" opacity="0.7"/>
  <path d="M98,151.8 Q150,61.80000000000001 202,151.8 Q200,215.8 150,233.8 Q100,215.8 98,151.8 Z" fill="#0d0b12"/>
  <path d="M98,151.8 Q150,61.80000000000001 202,151.8" fill="none" stroke="#f0e0ff" stroke-width="5"/>
  
      <!-- DNA double-helix halo above the pilgrim -->
      <circle cx="150.0" cy="33.80000000000001" r="4" fill="#f0e0ff"/><circle cx="150.0" cy="33.80000000000001" r="4" fill="#f0e0ff"/><line x1="150.0" y1="33.80000000000001" x2="150.0" y2="33.80000000000001" stroke="#c8a8ff" stroke-width="1.6" opacity="0.7"/><circle cx="176.0" cy="55.80000000000001" r="4" fill="#f0e0ff"/><circle cx="124.0" cy="55.80000000000001" r="4" fill="#f0e0ff"/><line x1="176.0" y1="55.80000000000001" x2="124.0" y2="55.80000000000001" stroke="#c8a8ff" stroke-width="1.6" opacity="0.7"/><circle cx="150.0" cy="77.80000000000001" r="4" fill="#f0e0ff"/><circle cx="150.0" cy="77.80000000000001" r="4" fill="#f0e0ff"/><line x1="150.0" y1="77.80000000000001" x2="150.0" y2="77.80000000000001" stroke="#c8a8ff" stroke-width="1.6" opacity="0.7"/><circle cx="124.0" cy="99.80000000000001" r="4" fill="#f0e0ff"/><circle cx="176.0" cy="99.80000000000001" r="4" fill="#f0e0ff"/><line x1="124.0" y1="99.80000000000001" x2="176.0" y2="99.80000000000001" stroke="#c8a8ff" stroke-width="1.6" opacity="0.7"/>
    
</svg>